<svg version="1.0" xmlns="http://www.w3.org/2000/svg" width="800.000000" height="800.000000" viewBox="0 0 800.000000 800.000000" preserveAspectRatio="xMidYMid meet">
  <metadata>
    <rdf:RDF xmlns:rdf="http://www.w3.org/1999/02/22-rdf-syntax-ns#" xmlns:rdfs="http://www.w3.org/2000/01/rdf-schema#" xmlns:dc="http://purl.org/dc/elements/1.1/">
      <rdf:Description dc:format="image/svg+xml" dc:Label="1" dc:ContentProducer="001191330110MACRLGPT8B00000" dc:ProduceID="455522603" dc:ReservedCode1="cMSnMjncnni/H/Ydu4MMbQLYiziGptYM8DOoCf1XO1s=" dc:ContentPropagator="001191330110MACRLGPT8B00000" dc:PropagateID="455522603" dc:ReservedCode2="cMSnMjncnni/H/Ydu4MMbQLYiziGptYM8DOoCf1XO1s="/>
    </rdf:RDF>
  </metadata>
  <g transform="translate(0.000000,800.000000) scale(0.100000,-0.100000)" fill="#000000" stroke="none">
    <path d="M4608 5961 c-127 -25 -185 -44 -288 -97 -314 -161 -500 -454 -500 -788 0 -185 42 -347 132 -511 67 -120 91 -150 297 -358 l176 -177 -133 -133 -134 -132 -215 220 c-118 121 -265 273 -326 338 -61 65 -117 116 -124 115 -7 -2 -360 -349 -784 -773 -732 -731 -772 -774 -804 -840 -43 -92 -56 -149 -56 -248 1 -167 72 -316 203 -425 134 -112 338 -160 501 -117 146 38 110 6 1071 964 489 487 898 896 909 909 27 29 32 28 96 -13 81 -52 259 -123 390 -157 166 -43 366 -50 496 -18 112 27 252 94 330 157 278 226 380 655 249 1056 -44 138 -141 309 -200 356 -27 21 -87 28 -111 13 -7 -5 -120 -115 -252 -245 -260 -258 -263 -260 -325 -215 -17 12 -70 64 -118 114 -68 71 -88 98 -88 120 0 24 40 68 250 274 168 165 252 254 256 273 11 50 -13 84 -104 144 -248 163 -559 239 -794 194z m328 -175 c110 -24 211 -63 322 -124 l43 -25 -219 -221 c-244 -247 -250 -256 -239 -377 6 -70 17 -87 150 -226 123 -128 159 -148 262 -148 58 1 90 6 115 19 19 10 129 111 243 225 237 234 209 224 272 101 161 -318 128 -711 -78 -936 -231 -252 -566 -281 -1001 -85 -156 71 -355 232 -547 442 -100 110 -137 162 -184 261 -146 303 -113 625 86 842 205 224 483 314 775 252z m-1236 -1793 c113 -115 234 -238 270 -276 l65 -67 -700 -701 c-495 -495 -713 -707 -746 -724 -288 -149 -645 132 -565 445 9 36 28 83 42 105 22 34 1410 1423 1424 1425 3 0 97 -93 210 -207z"/>
    <path d="M3171 3497 c-45 -16 -73 -56 -75 -105 -2 -77 45 -122 125 -122 33 0 47 6 75 34 30 30 34 40 34 84 0 43 -5 55 -31 81 -17 17 -36 31 -42 31 -7 0 -21 2 -32 5 -11 2 -35 -1 -54 -8z"/>
    <path d="M2803 3123 c-12 -2 -36 -20 -53 -39 -70 -80 -14 -204 92 -204 64 0 124 74 115 142 -6 46 -29 75 -74 94 -33 14 -40 15 -80 7z"/>
    <path d="M2409 2761 c-71 -23 -99 -62 -99 -139 0 -147 183 -196 260 -70 65 107 -43 247 -161 209z"/>
  </g>
</svg>